<svg width="48" height="48" viewBox="0 0 48 48" fill="none" xmlns="http://www.w3.org/2000/svg">
<rect width="48" height="48" rx="24" fill="#A62D82"/>
<path d="M31.7627 19.1539C31.1795 19.4119 30.5611 19.5813 29.9279 19.6566C30.5953 19.2574 31.0949 18.6291 31.3334 17.8889C30.707 18.2617 30.0203 18.5229 29.3045 18.6643C28.8237 18.1498 28.1865 17.8087 27.4918 17.6938C26.7971 17.5789 26.0839 17.6968 25.4631 18.0291C24.8423 18.3613 24.3487 18.8894 24.059 19.5311C23.7693 20.1729 23.6997 20.8924 23.8611 21.5777C22.5908 21.5141 21.3481 21.184 20.2137 20.6089C19.0793 20.0338 18.0785 19.2265 17.2763 18.2395C16.9924 18.7272 16.8432 19.2817 16.844 19.846C16.844 20.9536 17.4077 21.9322 18.2648 22.5051C17.7576 22.4891 17.2615 22.3521 16.818 22.1056V22.1453C16.8182 22.883 17.0734 23.5979 17.5405 24.1689C18.0076 24.7399 18.6578 25.1317 19.3809 25.278C18.91 25.4056 18.4163 25.4244 17.9371 25.333C18.141 25.968 18.5383 26.5233 19.0735 26.9212C19.6086 27.3191 20.2548 27.5397 20.9216 27.5521C20.2589 28.0726 19.5002 28.4573 18.6887 28.6843C17.8772 28.9113 17.0289 28.9762 16.1924 28.8752C17.6527 29.8143 19.3527 30.3129 21.0889 30.3113C26.9655 30.3113 30.1792 25.443 30.1792 21.221C30.1792 21.0835 30.1754 20.9445 30.1693 20.8085C30.7948 20.3564 31.3346 19.7964 31.7635 19.1547L31.7627 19.1539Z" fill="white"/>
</svg>
