<svg width="61" height="36" viewBox="0 0 61 36" fill="none" xmlns="http://www.w3.org/2000/svg">
<path d="M18.6074 29.8393C19.2925 30.2719 19.9915 30.6822 20.7033 31.0694L20.7101 31.0731L20.717 31.0768L20.7223 31.0796L20.7412 31.0909L20.7747 31.1076C21.1202 31.287 21.504 31.3803 21.8935 31.3798C22.1799 31.3794 22.4631 31.3281 22.7301 31.2293H22.8113L23.0609 31.0796L23.0662 31.0768L23.0742 31.0726L23.082 31.0683C25.4842 29.7547 27.744 28.1962 29.8256 26.4177L29.8293 26.4145C33.0936 23.6006 37.0196 19.1429 37.0196 13.6251V13.625C37.0194 11.7633 36.4421 9.94746 35.3671 8.42747C34.2922 6.90748 32.7724 5.75812 31.0172 5.13764C29.2619 4.51716 27.3575 4.45608 25.5661 4.96281C24.1893 5.35225 22.9314 6.06237 21.8916 7.02753C20.8518 6.06237 19.5939 5.35225 18.2171 4.96281C16.4257 4.45608 14.5213 4.51716 12.766 5.13764C11.0108 5.75812 9.49104 6.90748 8.41608 8.42747C7.34113 9.94746 6.76382 11.7633 6.76364 13.625V13.6251C6.76364 19.143 10.6916 23.6007 13.9536 26.4143L13.9575 26.4176C15.4224 27.6695 16.9765 28.8131 18.6074 29.8393ZM18.6074 29.8393C18.6071 29.8392 18.6069 29.839 18.6066 29.8389L19.2085 28.8856L18.6081 29.8398C18.6079 29.8396 18.6076 29.8395 18.6074 29.8393Z" fill="#FF1659" stroke="white" stroke-width="2.25592"/>
<path d="M39.6074 29.8393C40.2925 30.2719 40.9915 30.6822 41.7033 31.0694L41.7101 31.0731L41.717 31.0768L41.7223 31.0796L41.7412 31.0909L41.7747 31.1076C42.1202 31.287 42.504 31.3803 42.8935 31.3798C43.1799 31.3794 43.4631 31.3281 43.7301 31.2293H43.8113L44.0609 31.0796L44.0662 31.0768L44.0742 31.0726L44.082 31.0683C46.4842 29.7547 48.744 28.1962 50.8256 26.4177L50.8293 26.4145C54.0936 23.6006 58.0196 19.1429 58.0196 13.6251V13.625C58.0194 11.7633 57.4421 9.94746 56.3671 8.42747C55.2922 6.90748 53.7724 5.75812 52.0172 5.13764C50.2619 4.51716 48.3575 4.45608 46.5661 4.96281C45.1893 5.35225 43.9314 6.06237 42.8916 7.02753C41.8518 6.06237 40.5939 5.35225 39.2171 4.96281C37.4257 4.45608 35.5213 4.51716 33.766 5.13764C32.0108 5.75812 30.491 6.90748 29.4161 8.42747C28.3411 9.94746 27.7638 11.7633 27.7636 13.625V13.6251C27.7636 19.143 31.6916 23.6007 34.9536 26.4143L34.9575 26.4176C36.4224 27.6695 37.9765 28.8131 39.6074 29.8393ZM39.6074 29.8393C39.6071 29.8392 39.6069 29.839 39.6066 29.8389L40.2085 28.8856L39.6081 29.8398C39.6079 29.8396 39.6076 29.8395 39.6074 29.8393Z" fill="#FF1659" stroke="white" stroke-width="2.25592"/>
</svg>
