<svg width="48" height="48" viewBox="0 0 48 48" fill="none" xmlns="http://www.w3.org/2000/svg">
<rect width="48" height="48" rx="24" fill="#F6F7FC"/>
<path fill-rule="evenodd" clip-rule="evenodd" d="M15.25 19C15.25 18.5027 15.4475 18.0258 15.7992 17.6742C16.1508 17.3225 16.6277 17.125 17.125 17.125H30.875C31.3723 17.125 31.8492 17.3225 32.2008 17.6742C32.5525 18.0258 32.75 18.5027 32.75 19V29C32.75 29.4973 32.5525 29.9742 32.2008 30.3258C31.8492 30.6775 31.3723 30.875 30.875 30.875H17.125C16.6277 30.875 16.1508 30.6775 15.7992 30.3258C15.4475 29.9742 15.25 29.4973 15.25 29V19ZM16.5 27.3833V29C16.5 29.345 16.78 29.625 17.125 29.625H30.875C31.0408 29.625 31.1997 29.5592 31.3169 29.4419C31.4342 29.3247 31.5 29.1658 31.5 29V27.3833L29.2583 25.1425C29.024 24.9084 28.7063 24.7769 28.375 24.7769C28.0437 24.7769 27.726 24.9084 27.4917 25.1425L26.7583 25.875L27.5667 26.6833C27.6281 26.7406 27.6773 26.8096 27.7115 26.8862C27.7456 26.9629 27.764 27.0456 27.7655 27.1296C27.767 27.2135 27.7515 27.2968 27.7201 27.3747C27.6887 27.4525 27.6419 27.5232 27.5825 27.5825C27.5232 27.6419 27.4525 27.6887 27.3747 27.7201C27.2968 27.7515 27.2135 27.767 27.1296 27.7655C27.0456 27.764 26.9629 27.7456 26.8862 27.7115C26.8096 27.6773 26.7406 27.6281 26.6833 27.5667L22.3833 23.2675C22.149 23.0334 21.8313 22.9019 21.5 22.9019C21.1687 22.9019 20.851 23.0334 20.6167 23.2675L16.5 27.3842V27.3833ZM24.9375 20.875C24.9375 20.6264 25.0363 20.3879 25.2121 20.2121C25.3879 20.0363 25.6264 19.9375 25.875 19.9375C26.1236 19.9375 26.3621 20.0363 26.5379 20.2121C26.7137 20.3879 26.8125 20.6264 26.8125 20.875C26.8125 21.1236 26.7137 21.3621 26.5379 21.5379C26.3621 21.7137 26.1236 21.8125 25.875 21.8125C25.6264 21.8125 25.3879 21.7137 25.2121 21.5379C25.0363 21.3621 24.9375 21.1236 24.9375 20.875Z" fill="#9AA1B9"/>
</svg>
