<svg width="180" height="41" viewBox="0 0 180 41" fill="none" xmlns="http://www.w3.org/2000/svg">
<rect x="0.5" width="179" height="41" rx="20.5" fill="url(#paint0_radial_96_1429)"/>
<path d="M37.2844 13.9432C37.2477 13.7623 37.1495 13.5997 37.0067 13.4829C36.8638 13.3662 36.6849 13.3024 36.5004 13.3024C36.3158 13.3024 36.137 13.3662 35.9941 13.4829C35.8512 13.5997 35.7531 13.7623 35.7164 13.9432L35.5244 14.8968C35.4935 15.0517 35.4175 15.194 35.3059 15.3057C35.1942 15.4175 35.052 15.4937 34.8972 15.5248L33.9436 15.7152C33.7619 15.7511 33.5983 15.849 33.4807 15.9921C33.3631 16.1352 33.2988 16.3147 33.2988 16.5C33.2988 16.6852 33.3631 16.8647 33.4807 17.0078C33.5983 17.151 33.7619 17.2488 33.9436 17.2848L34.8972 17.4752C35.0522 17.5061 35.1946 17.5823 35.3063 17.694C35.4181 17.8058 35.4943 17.9482 35.5252 18.1032L35.7156 19.0568C35.7515 19.2385 35.8494 19.4021 35.9925 19.5197C36.1357 19.6373 36.3151 19.7016 36.5004 19.7016C36.6856 19.7016 36.8651 19.6373 37.0082 19.5197C37.1514 19.4021 37.2492 19.2385 37.2852 19.0568L37.4756 18.1032C37.5065 17.9482 37.5827 17.8058 37.6944 17.694C37.8062 17.5823 37.9486 17.5061 38.1036 17.4752L39.0572 17.2848C39.2389 17.2488 39.4025 17.151 39.5201 17.0078C39.6377 16.8647 39.702 16.6852 39.702 16.5C39.702 16.3147 39.6377 16.1352 39.5201 15.9921C39.4025 15.849 39.2389 15.7511 39.0572 15.7152L38.1036 15.5248C37.9486 15.4938 37.8062 15.4177 37.6944 15.3059C37.5827 15.1942 37.5065 15.0518 37.4756 14.8968L37.2852 13.9432H37.2844ZM30.0596 17.0472C30.0066 16.8877 29.9048 16.749 29.7685 16.6506C29.6322 16.5523 29.4684 16.4994 29.3004 16.4994C29.1323 16.4994 28.9686 16.5523 28.8323 16.6506C28.696 16.749 28.5942 16.8877 28.5412 17.0472L27.9948 18.688C27.9555 18.8059 27.8893 18.9131 27.8014 19.001C27.7135 19.0889 27.6063 19.1551 27.4884 19.1944L25.8476 19.7408C25.6881 19.7937 25.5494 19.8956 25.451 20.0319C25.3527 20.1682 25.2998 20.3319 25.2998 20.5C25.2998 20.668 25.3527 20.8318 25.451 20.9681C25.5494 21.1043 25.6881 21.2062 25.8476 21.2592L27.4884 21.8064C27.6062 21.8456 27.7134 21.9116 27.8013 21.9994C27.8892 22.0872 27.9554 22.1942 27.9948 22.312L28.5412 23.9528C28.5942 24.1122 28.696 24.251 28.8323 24.3493C28.9686 24.4476 29.1323 24.5005 29.3004 24.5005C29.4684 24.5005 29.6322 24.4476 29.7685 24.3493C29.9048 24.251 30.0066 24.1122 30.0596 23.9528L30.606 22.312C30.6452 22.194 30.7115 22.0868 30.7994 21.9989C30.8873 21.911 30.9944 21.8448 31.1124 21.8056L32.7532 21.2592C32.9127 21.2062 33.0514 21.1043 33.1497 20.9681C33.248 20.8318 33.301 20.668 33.301 20.5C33.301 20.3319 33.248 20.1682 33.1497 20.0319C33.0514 19.8956 32.9127 19.7937 32.7532 19.7408L31.1124 19.1944C30.9944 19.1551 30.8873 19.0889 30.7994 19.001C30.7115 18.9131 30.6452 18.8059 30.606 18.688L30.0604 17.0472H30.0596ZM35.6596 23.4472C35.6066 23.2877 35.5048 23.149 35.3685 23.0506C35.2322 22.9523 35.0684 22.8994 34.9004 22.8994C34.7323 22.8994 34.5686 22.9523 34.4323 23.0506C34.296 23.149 34.1942 23.2877 34.1412 23.4472L33.994 23.888C33.9548 24.0058 33.8887 24.113 33.801 24.2009C33.7132 24.2887 33.6062 24.355 33.4884 24.3944L33.0476 24.5408C32.8881 24.5938 32.7494 24.6956 32.651 24.8319C32.5527 24.9682 32.4998 25.1319 32.4998 25.3C32.4998 25.468 32.5527 25.6318 32.651 25.7681C32.7494 25.9043 32.8881 26.0062 33.0476 26.0592L33.4884 26.2056C33.6063 26.2448 33.7135 26.311 33.8014 26.3989C33.8893 26.4868 33.9555 26.594 33.9948 26.712L34.1412 27.1528C34.1942 27.3122 34.296 27.451 34.4323 27.5493C34.5686 27.6476 34.7323 27.7005 34.9004 27.7005C35.0684 27.7005 35.2322 27.6476 35.3685 27.5493C35.5048 27.451 35.6066 27.3122 35.6596 27.1528L35.8068 26.712C35.846 26.5941 35.912 26.487 35.9998 26.3991C36.0876 26.3112 36.1946 26.2449 36.3124 26.2056L36.7532 26.0592C36.9127 26.0062 37.0514 25.9043 37.1497 25.7681C37.248 25.6318 37.301 25.468 37.301 25.3C37.301 25.1319 37.248 24.9682 37.1497 24.8319C37.0514 24.6956 36.9127 24.5938 36.7532 24.5408L36.3124 24.3936C36.1945 24.3544 36.0874 24.2883 35.9995 24.2005C35.9116 24.1128 35.8453 24.0058 35.806 23.888L35.6596 23.4472Z" fill="#F3B984"/>
<path d="M48.306 25.098C48.1193 25.098 47.9747 25.042 47.872 24.93C47.7693 24.818 47.718 24.6687 47.718 24.482V15.648C47.718 15.452 47.7693 15.3027 47.872 15.2C47.984 15.088 48.1333 15.032 48.32 15.032C48.488 15.032 48.6187 15.0647 48.712 15.13C48.8147 15.1953 48.908 15.3073 48.992 15.466L52.744 22.508H52.31L56.062 15.466C56.146 15.3073 56.2347 15.1953 56.328 15.13C56.4213 15.0647 56.552 15.032 56.72 15.032C56.9067 15.032 57.0513 15.088 57.154 15.2C57.2567 15.3027 57.308 15.452 57.308 15.648V24.482C57.308 24.6687 57.2567 24.818 57.154 24.93C57.0607 25.042 56.916 25.098 56.72 25.098C56.524 25.098 56.3747 25.042 56.272 24.93C56.1787 24.818 56.132 24.6687 56.132 24.482V16.936H56.44L53.08 23.222C53.0053 23.3433 52.926 23.4367 52.842 23.502C52.7673 23.558 52.66 23.586 52.52 23.586C52.3893 23.586 52.2773 23.5533 52.184 23.488C52.1 23.4227 52.0253 23.334 51.96 23.222L48.558 16.922H48.894V24.482C48.894 24.6687 48.8427 24.818 48.74 24.93C48.6467 25.042 48.502 25.098 48.306 25.098ZM62.4376 25.126C61.7656 25.126 61.1822 24.9813 60.6876 24.692C60.1929 24.4027 59.8102 23.992 59.5396 23.46C59.2689 22.928 59.1336 22.3027 59.1336 21.584C59.1336 21.0427 59.2082 20.5573 59.3576 20.128C59.5162 19.6893 59.7402 19.316 60.0296 19.008C60.3189 18.7 60.6642 18.4667 61.0656 18.308C61.4762 18.14 61.9336 18.056 62.4376 18.056C63.1096 18.056 63.6929 18.2007 64.1876 18.49C64.6822 18.7793 65.0649 19.19 65.3356 19.722C65.6062 20.2447 65.7416 20.8653 65.7416 21.584C65.7416 22.1253 65.6622 22.6153 65.5036 23.054C65.3542 23.4927 65.1349 23.866 64.8456 24.174C64.5562 24.482 64.2062 24.72 63.7956 24.888C63.3942 25.0467 62.9416 25.126 62.4376 25.126ZM62.4376 24.118C62.8482 24.118 63.2029 24.02 63.5016 23.824C63.8096 23.628 64.0429 23.3433 64.2016 22.97C64.3696 22.5967 64.4536 22.1347 64.4536 21.584C64.4536 20.7627 64.2716 20.1373 63.9076 19.708C63.5436 19.2787 63.0536 19.064 62.4376 19.064C62.0362 19.064 61.6816 19.162 61.3736 19.358C61.0749 19.5447 60.8416 19.8247 60.6736 20.198C60.5056 20.5713 60.4216 21.0333 60.4216 21.584C60.4216 22.4053 60.6036 23.0353 60.9676 23.474C61.3409 23.9033 61.8309 24.118 62.4376 24.118ZM68.0316 25.098C67.8169 25.098 67.6536 25.042 67.5416 24.93C67.4296 24.818 67.3736 24.6547 67.3736 24.44V18.728C67.3736 18.5133 67.4296 18.3547 67.5416 18.252C67.6536 18.14 67.8076 18.084 68.0036 18.084C68.1996 18.084 68.3489 18.14 68.4516 18.252C68.5636 18.3547 68.6196 18.5133 68.6196 18.728V19.806H68.4796C68.6289 19.246 68.9089 18.8213 69.3196 18.532C69.7302 18.2427 70.2482 18.0793 70.8736 18.042C71.0229 18.0327 71.1442 18.07 71.2376 18.154C71.3309 18.2287 71.3822 18.3593 71.3916 18.546C71.4009 18.7233 71.3589 18.868 71.2656 18.98C71.1722 19.0827 71.0276 19.1433 70.8316 19.162L70.5796 19.176C69.9636 19.2413 69.4876 19.442 69.1516 19.778C68.8249 20.114 68.6616 20.576 68.6616 21.164V24.44C68.6616 24.6547 68.6056 24.818 68.4936 24.93C68.3909 25.042 68.2369 25.098 68.0316 25.098ZM75.5411 25.126C74.8038 25.126 74.1691 24.986 73.6371 24.706C73.1145 24.4167 72.7085 24.0107 72.4191 23.488C72.1298 22.956 71.9851 22.3307 71.9851 21.612C71.9851 20.9027 72.1251 20.282 72.4051 19.75C72.6945 19.218 73.0865 18.8027 73.5811 18.504C74.0851 18.2053 74.6591 18.056 75.3031 18.056C75.7605 18.056 76.1711 18.1353 76.5351 18.294C76.9085 18.4433 77.2258 18.6627 77.4871 18.952C77.7485 19.2413 77.9445 19.596 78.0751 20.016C78.2151 20.4267 78.2851 20.8933 78.2851 21.416C78.2851 21.5653 78.2385 21.682 78.1451 21.766C78.0611 21.8407 77.9351 21.878 77.7671 21.878H72.9791V21.066H77.4451L77.2071 21.262C77.2071 20.7767 77.1325 20.366 76.9831 20.03C76.8431 19.6847 76.6331 19.4233 76.3531 19.246C76.0825 19.0687 75.7418 18.98 75.3311 18.98C74.8831 18.98 74.5005 19.0873 74.1831 19.302C73.8658 19.5073 73.6231 19.8013 73.4551 20.184C73.2871 20.5573 73.2031 20.9913 73.2031 21.486V21.57C73.2031 22.41 73.4038 23.0447 73.8051 23.474C74.2065 23.9033 74.7851 24.118 75.5411 24.118C75.8398 24.118 76.1431 24.0807 76.4511 24.006C76.7685 23.9313 77.0718 23.796 77.3611 23.6C77.5011 23.516 77.6271 23.4787 77.7391 23.488C77.8605 23.488 77.9585 23.5253 78.0331 23.6C78.1078 23.6653 78.1545 23.7493 78.1731 23.852C78.1918 23.9453 78.1778 24.048 78.1311 24.16C78.0845 24.272 77.9958 24.37 77.8651 24.454C77.5571 24.6687 77.1885 24.8367 76.7591 24.958C76.3391 25.07 75.9331 25.126 75.5411 25.126ZM85.662 25.126C84.962 25.126 84.43 24.9207 84.066 24.51C83.702 24.09 83.52 23.488 83.52 22.704V15.676C83.52 15.4613 83.576 15.3027 83.688 15.2C83.8 15.088 83.954 15.032 84.15 15.032C84.3554 15.032 84.514 15.088 84.626 15.2C84.738 15.3027 84.794 15.4613 84.794 15.676V22.606C84.794 23.0913 84.892 23.4553 85.088 23.698C85.2934 23.9313 85.5827 24.048 85.956 24.048C86.04 24.048 86.1147 24.048 86.18 24.048C86.2454 24.0387 86.3107 24.0293 86.376 24.02C86.4787 24.0107 86.5534 24.0387 86.6 24.104C86.6467 24.1693 86.67 24.3 86.67 24.496C86.67 24.6733 86.628 24.8133 86.544 24.916C86.4694 25.0093 86.3434 25.07 86.166 25.098C86.082 25.1073 85.998 25.112 85.914 25.112C85.83 25.1213 85.746 25.126 85.662 25.126ZM88.361 25.07C88.165 25.07 88.011 25.0093 87.899 24.888C87.787 24.7667 87.731 24.5987 87.731 24.384V18.798C87.731 18.574 87.787 18.406 87.899 18.294C88.011 18.1727 88.165 18.112 88.361 18.112C88.5663 18.112 88.725 18.1727 88.837 18.294C88.949 18.406 89.005 18.574 89.005 18.798V24.384C89.005 24.5987 88.949 24.7667 88.837 24.888C88.7343 25.0093 88.5757 25.07 88.361 25.07ZM88.361 16.6C88.109 16.6 87.9083 16.5347 87.759 16.404C87.619 16.264 87.549 16.082 87.549 15.858C87.549 15.6153 87.619 15.4333 87.759 15.312C87.9083 15.1813 88.109 15.116 88.361 15.116C88.6317 15.116 88.8323 15.1813 88.963 15.312C89.103 15.4333 89.173 15.6153 89.173 15.858C89.173 16.082 89.103 16.264 88.963 16.404C88.8323 16.5347 88.6317 16.6 88.361 16.6ZM91.7113 25.098C91.5153 25.098 91.3613 25.042 91.2493 24.93C91.1373 24.818 91.0813 24.6547 91.0813 24.44V18.728C91.0813 18.5133 91.1373 18.3547 91.2493 18.252C91.3613 18.14 91.5153 18.084 91.7113 18.084C91.9073 18.084 92.0566 18.14 92.1593 18.252C92.2713 18.3547 92.3273 18.5133 92.3273 18.728V19.918L92.1733 19.666C92.3506 19.1527 92.6353 18.756 93.0273 18.476C93.4286 18.196 93.9046 18.056 94.4553 18.056C95.0339 18.056 95.5006 18.196 95.8553 18.476C96.2099 18.7467 96.4479 19.162 96.5693 19.722H96.3733C96.5413 19.2087 96.8399 18.8027 97.2693 18.504C97.7079 18.2053 98.2166 18.056 98.7953 18.056C99.3086 18.056 99.7286 18.1587 100.055 18.364C100.391 18.56 100.643 18.8587 100.811 19.26C100.979 19.652 101.063 20.156 101.063 20.772V24.44C101.063 24.6547 101.007 24.818 100.895 24.93C100.783 25.042 100.629 25.098 100.433 25.098C100.228 25.098 100.069 25.042 99.9573 24.93C99.8453 24.818 99.7893 24.6547 99.7893 24.44V20.828C99.7893 20.2307 99.6866 19.792 99.4813 19.512C99.2759 19.232 98.9306 19.092 98.4453 19.092C97.9133 19.092 97.4886 19.2787 97.1713 19.652C96.8633 20.016 96.7093 20.52 96.7093 21.164V24.44C96.7093 24.6547 96.6533 24.818 96.5413 24.93C96.4386 25.042 96.2846 25.098 96.0793 25.098C95.8739 25.098 95.7153 25.042 95.6033 24.93C95.4913 24.818 95.4353 24.6547 95.4353 24.44V20.828C95.4353 20.2307 95.3326 19.792 95.1273 19.512C94.9219 19.232 94.5766 19.092 94.0913 19.092C93.5593 19.092 93.1346 19.2787 92.8173 19.652C92.5093 20.016 92.3553 20.52 92.3553 21.164V24.44C92.3553 24.8787 92.1406 25.098 91.7113 25.098ZM103.742 25.07C103.546 25.07 103.392 25.0093 103.28 24.888C103.168 24.7667 103.112 24.5987 103.112 24.384V18.798C103.112 18.574 103.168 18.406 103.28 18.294C103.392 18.1727 103.546 18.112 103.742 18.112C103.947 18.112 104.106 18.1727 104.218 18.294C104.33 18.406 104.386 18.574 104.386 18.798V24.384C104.386 24.5987 104.33 24.7667 104.218 24.888C104.115 25.0093 103.957 25.07 103.742 25.07ZM103.742 16.6C103.49 16.6 103.289 16.5347 103.14 16.404C103 16.264 102.93 16.082 102.93 15.858C102.93 15.6153 103 15.4333 103.14 15.312C103.289 15.1813 103.49 15.116 103.742 15.116C104.013 15.116 104.213 15.1813 104.344 15.312C104.484 15.4333 104.554 15.6153 104.554 15.858C104.554 16.082 104.484 16.264 104.344 16.404C104.213 16.5347 104.013 16.6 103.742 16.6ZM109.262 25.126C108.711 25.126 108.249 25.028 107.876 24.832C107.512 24.636 107.237 24.3513 107.05 23.978C106.873 23.6047 106.784 23.1473 106.784 22.606V19.162H105.888C105.72 19.162 105.589 19.12 105.496 19.036C105.403 18.9427 105.356 18.8213 105.356 18.672C105.356 18.5133 105.403 18.392 105.496 18.308C105.589 18.224 105.72 18.182 105.888 18.182H106.784V16.656C106.784 16.4413 106.84 16.2827 106.952 16.18C107.064 16.068 107.223 16.012 107.428 16.012C107.633 16.012 107.787 16.068 107.89 16.18C108.002 16.2827 108.058 16.4413 108.058 16.656V18.182H109.752C109.929 18.182 110.065 18.224 110.158 18.308C110.251 18.392 110.298 18.5133 110.298 18.672C110.298 18.8213 110.251 18.9427 110.158 19.036C110.065 19.12 109.929 19.162 109.752 19.162H108.058V22.494C108.058 23.0073 108.165 23.3947 108.38 23.656C108.595 23.9173 108.949 24.048 109.444 24.048C109.621 24.048 109.771 24.034 109.892 24.006C110.013 23.9687 110.121 23.95 110.214 23.95C110.298 23.9407 110.368 23.9687 110.424 24.034C110.489 24.0993 110.522 24.2207 110.522 24.398C110.522 24.5287 110.499 24.65 110.452 24.762C110.415 24.8647 110.335 24.9347 110.214 24.972C110.102 25.0093 109.953 25.042 109.766 25.07C109.579 25.1073 109.411 25.126 109.262 25.126ZM115.886 25.098C115.699 25.098 115.555 25.042 115.452 24.93C115.349 24.818 115.298 24.6687 115.298 24.482V15.648C115.298 15.452 115.349 15.3027 115.452 15.2C115.564 15.088 115.713 15.032 115.9 15.032C116.068 15.032 116.199 15.0647 116.292 15.13C116.395 15.1953 116.488 15.3073 116.572 15.466L120.324 22.508H119.89L123.642 15.466C123.726 15.3073 123.815 15.1953 123.908 15.13C124.001 15.0647 124.132 15.032 124.3 15.032C124.487 15.032 124.631 15.088 124.734 15.2C124.837 15.3027 124.888 15.452 124.888 15.648V24.482C124.888 24.6687 124.837 24.818 124.734 24.93C124.641 25.042 124.496 25.098 124.3 25.098C124.104 25.098 123.955 25.042 123.852 24.93C123.759 24.818 123.712 24.6687 123.712 24.482V16.936H124.02L120.66 23.222C120.585 23.3433 120.506 23.4367 120.422 23.502C120.347 23.558 120.24 23.586 120.1 23.586C119.969 23.586 119.857 23.5533 119.764 23.488C119.68 23.4227 119.605 23.334 119.54 23.222L116.138 16.922H116.474V24.482C116.474 24.6687 116.423 24.818 116.32 24.93C116.227 25.042 116.082 25.098 115.886 25.098ZM130.27 25.126C129.532 25.126 128.898 24.986 128.366 24.706C127.843 24.4167 127.437 24.0107 127.148 23.488C126.858 22.956 126.714 22.3307 126.714 21.612C126.714 20.9027 126.854 20.282 127.134 19.75C127.423 19.218 127.815 18.8027 128.31 18.504C128.814 18.2053 129.388 18.056 130.032 18.056C130.489 18.056 130.9 18.1353 131.264 18.294C131.637 18.4433 131.954 18.6627 132.216 18.952C132.477 19.2413 132.673 19.596 132.804 20.016C132.944 20.4267 133.014 20.8933 133.014 21.416C133.014 21.5653 132.967 21.682 132.874 21.766C132.79 21.8407 132.664 21.878 132.496 21.878H127.708V21.066H132.174L131.936 21.262C131.936 20.7767 131.861 20.366 131.712 20.03C131.572 19.6847 131.362 19.4233 131.082 19.246C130.811 19.0687 130.47 18.98 130.06 18.98C129.612 18.98 129.229 19.0873 128.912 19.302C128.594 19.5073 128.352 19.8013 128.184 20.184C128.016 20.5573 127.932 20.9913 127.932 21.486V21.57C127.932 22.41 128.132 23.0447 128.534 23.474C128.935 23.9033 129.514 24.118 130.27 24.118C130.568 24.118 130.872 24.0807 131.18 24.006C131.497 23.9313 131.8 23.796 132.09 23.6C132.23 23.516 132.356 23.4787 132.468 23.488C132.589 23.488 132.687 23.5253 132.762 23.6C132.836 23.6653 132.883 23.7493 132.902 23.852C132.92 23.9453 132.906 24.048 132.86 24.16C132.813 24.272 132.724 24.37 132.594 24.454C132.286 24.6687 131.917 24.8367 131.488 24.958C131.068 25.07 130.662 25.126 130.27 25.126ZM135.256 25.098C135.042 25.098 134.878 25.042 134.766 24.93C134.654 24.818 134.598 24.6547 134.598 24.44V18.728C134.598 18.5133 134.654 18.3547 134.766 18.252C134.878 18.14 135.032 18.084 135.228 18.084C135.424 18.084 135.574 18.14 135.676 18.252C135.788 18.3547 135.844 18.5133 135.844 18.728V19.806H135.704C135.854 19.246 136.134 18.8213 136.544 18.532C136.955 18.2427 137.473 18.0793 138.098 18.042C138.248 18.0327 138.369 18.07 138.462 18.154C138.556 18.2287 138.607 18.3593 138.616 18.546C138.626 18.7233 138.584 18.868 138.49 18.98C138.397 19.0827 138.252 19.1433 138.056 19.162L137.804 19.176C137.188 19.2413 136.712 19.442 136.376 19.778C136.05 20.114 135.886 20.576 135.886 21.164V24.44C135.886 24.6547 135.83 24.818 135.718 24.93C135.616 25.042 135.462 25.098 135.256 25.098ZM140.369 25.098C140.155 25.098 139.991 25.042 139.879 24.93C139.767 24.818 139.711 24.6547 139.711 24.44V18.728C139.711 18.5133 139.767 18.3547 139.879 18.252C139.991 18.14 140.145 18.084 140.341 18.084C140.537 18.084 140.687 18.14 140.789 18.252C140.901 18.3547 140.957 18.5133 140.957 18.728V19.806H140.817C140.967 19.246 141.247 18.8213 141.657 18.532C142.068 18.2427 142.586 18.0793 143.211 18.042C143.361 18.0327 143.482 18.07 143.575 18.154C143.669 18.2287 143.72 18.3593 143.729 18.546C143.739 18.7233 143.697 18.868 143.603 18.98C143.51 19.0827 143.365 19.1433 143.169 19.162L142.917 19.176C142.301 19.2413 141.825 19.442 141.489 19.778C141.163 20.114 140.999 20.576 140.999 21.164V24.44C140.999 24.6547 140.943 24.818 140.831 24.93C140.729 25.042 140.575 25.098 140.369 25.098ZM146.817 27.618C146.667 27.618 146.541 27.576 146.439 27.492C146.345 27.4173 146.289 27.31 146.271 27.17C146.261 27.0393 146.289 26.8993 146.355 26.75L147.307 24.594V25.126L144.661 18.966C144.595 18.8073 144.572 18.6627 144.591 18.532C144.609 18.4013 144.67 18.294 144.773 18.21C144.885 18.126 145.034 18.084 145.221 18.084C145.379 18.084 145.505 18.1213 145.599 18.196C145.692 18.2707 145.781 18.4013 145.865 18.588L148.063 24.006H147.671L149.911 18.588C149.985 18.4013 150.074 18.2707 150.177 18.196C150.279 18.1213 150.419 18.084 150.597 18.084C150.755 18.084 150.877 18.126 150.961 18.21C151.054 18.294 151.11 18.4013 151.129 18.532C151.147 18.6627 151.119 18.8027 151.045 18.952L147.517 27.114C147.423 27.31 147.325 27.4407 147.223 27.506C147.129 27.5807 146.994 27.618 146.817 27.618ZM153.097 22.41C152.976 22.41 152.873 22.3727 152.789 22.298C152.714 22.214 152.672 22.088 152.663 21.92L152.355 15.858C152.336 15.606 152.392 15.4053 152.523 15.256C152.654 15.1067 152.845 15.032 153.097 15.032C153.34 15.032 153.526 15.1067 153.657 15.256C153.788 15.4053 153.844 15.606 153.825 15.858L153.517 21.92C153.508 22.088 153.466 22.214 153.391 22.298C153.316 22.3727 153.218 22.41 153.097 22.41ZM153.097 25.056C152.854 25.056 152.654 24.9767 152.495 24.818C152.336 24.6593 152.257 24.4587 152.257 24.216C152.257 23.9733 152.336 23.7773 152.495 23.628C152.654 23.4787 152.854 23.404 153.097 23.404C153.358 23.404 153.559 23.4787 153.699 23.628C153.848 23.7773 153.923 23.9733 153.923 24.216C153.923 24.4587 153.848 24.6593 153.699 24.818C153.559 24.9767 153.358 25.056 153.097 25.056Z" fill="white"/>
<defs>
<radialGradient id="paint0_radial_96_1429" cx="0" cy="0" r="1" gradientUnits="userSpaceOnUse" gradientTransform="translate(6.09376 -7.99851e-06) rotate(14.1511) scale(178.833 283.134)">
<stop offset="0.234349" stop-color="#742138"/>
<stop offset="1" stop-color="#A878BF"/>
</radialGradient>
</defs>
</svg>
