<svg width="26" height="24" viewBox="0 0 26 24" fill="none" xmlns="http://www.w3.org/2000/svg">
<path d="M12.5267 23.8807L12.5173 23.8767L12.488 23.8607C12.3164 23.7663 12.1461 23.6694 11.9773 23.57C9.94775 22.364 8.05103 20.9472 6.31867 19.3433C3.25067 16.4805 0 12.2324 0 7.00027C0 3.09617 3.28533 9.46041e-05 7.25067 9.46041e-05C8.353 -0.00530477 9.44238 0.237888 10.4378 0.711587C11.4331 1.18528 12.3089 1.8773 13 2.73616C13.6912 1.87712 14.5672 1.185 15.5628 0.711296C16.5585 0.237591 17.6481 -0.00550555 18.7507 9.46041e-05C22.7147 9.46041e-05 26 3.09617 26 7.00027C26 12.2337 22.7493 16.4818 19.6813 19.3419C17.949 20.9459 16.0523 22.3627 14.0227 23.5687C13.8539 23.6685 13.6836 23.7658 13.512 23.8607L13.4827 23.8767L13.4733 23.882L13.4693 23.8834C13.3247 23.96 13.1636 24 13 24C12.8364 24 12.6753 23.96 12.5307 23.8834L12.5267 23.882V23.8807Z" fill="#531741"/>
</svg>
