<svg width="21" height="12" viewBox="0 0 21 12" fill="none" xmlns="http://www.w3.org/2000/svg">
<g clip-path="url(#clip0_2535_336)">
<path d="M6.61163 10.155C6.84858 10.3046 7.09033 10.4465 7.33649 10.5804L7.33646 10.5805L7.34158 10.5832L7.34904 10.5877L7.36365 10.595C7.4981 10.6646 7.64737 10.7008 7.79885 10.7006C7.90344 10.7005 8.00692 10.6829 8.10516 10.649H8.14476L8.25354 10.5838L8.26054 10.5799C9.09099 10.1258 9.87224 9.58702 10.5918 8.97218L10.5918 8.97218L10.5935 8.97075C11.7169 8.00231 13.098 6.44475 13.098 4.50004V4.49999C13.098 3.83827 12.8928 3.19285 12.5107 2.65259C12.1286 2.11232 11.5885 1.7038 10.9646 1.48325C10.3407 1.26271 9.66378 1.241 9.02704 1.42111C8.57122 1.55005 8.15204 1.77788 7.79805 2.08575C7.44406 1.77788 7.02487 1.55005 6.56905 1.42111C5.93232 1.241 5.25541 1.26271 4.63152 1.48325C4.00764 1.7038 3.46747 2.11232 3.08539 2.65259C2.70331 3.19285 2.49811 3.83827 2.49805 4.49999V4.50004C2.49805 6.4448 3.87983 8.00237 5.00248 8.97066L5.00421 8.97214C5.5106 9.40491 6.04783 9.80025 6.61163 10.155ZM6.61163 10.155C6.61152 10.155 6.61141 10.1549 6.6113 10.1548L6.8782 9.7321L6.61197 10.1552C6.61186 10.1552 6.61174 10.1551 6.61163 10.155Z" fill="#FF1659" stroke="white"/>
</g>
<g clip-path="url(#clip1_2535_336)">
<path d="M13.8128 10.155C14.0498 10.3046 14.2915 10.4465 14.5377 10.5804L14.5376 10.5805L14.5427 10.5832L14.5502 10.5877L14.5648 10.595C14.6993 10.6646 14.8485 10.7008 15 10.7006C15.1046 10.7005 15.2081 10.6829 15.3063 10.649H15.3459L15.4547 10.5838L15.4617 10.5799C16.2922 10.1258 17.0734 9.58702 17.793 8.97218L17.793 8.97218L17.7947 8.97075C18.9181 8.00231 20.2992 6.44475 20.2992 4.50004V4.49999C20.2992 3.83827 20.094 3.19285 19.7119 2.65259C19.3298 2.11232 18.7896 1.7038 18.1657 1.48325C17.5419 1.26271 16.8649 1.241 16.2282 1.42111C15.7724 1.55005 15.3532 1.77788 14.9992 2.08575C14.6452 1.77788 14.226 1.55005 13.7702 1.42111C13.1335 1.241 12.4566 1.26271 11.8327 1.48325C11.2088 1.7038 10.6686 2.11232 10.2866 2.65259C9.90448 3.19285 9.69928 3.83827 9.69922 4.49999V4.50004C9.69922 6.4448 11.081 8.00237 12.2037 8.97066L12.2054 8.97214C12.7118 9.40491 13.249 9.80025 13.8128 10.155ZM13.8128 10.155C13.8127 10.155 13.8126 10.1549 13.8125 10.1548L14.0794 9.7321L13.8131 10.1552C13.813 10.1552 13.8129 10.1551 13.8128 10.155Z" fill="#FF1659" stroke="white"/>
</g>
<defs>
<clipPath id="clip0_2535_336">
<rect width="12" height="12" fill="white" transform="translate(1.79883)"/>
</clipPath>
<clipPath id="clip1_2535_336">
<rect width="12" height="12" fill="white" transform="translate(9)"/>
</clipPath>
</defs>
</svg>
