<svg width="72" height="72" viewBox="0 0 72 72" fill="none" xmlns="http://www.w3.org/2000/svg">
<g filter="url(#filter0_d_46_643)">
<rect x="10" y="10" width="48" height="48" rx="16" fill="white"/>
<path fill-rule="evenodd" clip-rule="evenodd" d="M34.0004 25.6C28.8284 25.6 24.4004 29.2396 24.4004 34C24.4004 36.4288 25.574 38.59 27.3992 40.102C27.3825 40.8477 27.1661 41.5754 26.7728 42.2092C26.6912 42.3409 26.645 42.4913 26.6387 42.6461C26.6323 42.8009 26.666 42.9546 26.7365 43.0926C26.8069 43.2305 26.9118 43.3479 27.0409 43.4334C27.1701 43.519 27.3191 43.5697 27.4736 43.5808C29.1554 43.7067 30.8277 43.236 32.1968 42.2512C32.7812 42.3496 33.3848 42.4 34.0004 42.4C39.1724 42.4 43.6004 38.7604 43.6004 34C43.6004 29.2396 39.1724 25.6 34.0004 25.6ZM34.0004 35.2C34.3187 35.2 34.6239 35.0735 34.8489 34.8485C35.074 34.6235 35.2004 34.3182 35.2004 34C35.2004 33.6817 35.074 33.3765 34.8489 33.1514C34.6239 32.9264 34.3187 32.8 34.0004 32.8C33.6821 32.8 33.3769 32.9264 33.1519 33.1514C32.9268 33.3765 32.8004 33.6817 32.8004 34C32.8004 34.3182 32.9268 34.6235 33.1519 34.8485C33.3769 35.0735 33.6821 35.2 34.0004 35.2ZM31.6004 34C31.6004 34.3182 31.474 34.6235 31.2489 34.8485C31.0239 35.0735 30.7187 35.2 30.4004 35.2C30.0821 35.2 29.7769 35.0735 29.5519 34.8485C29.3268 34.6235 29.2004 34.3182 29.2004 34C29.2004 33.6817 29.3268 33.3765 29.5519 33.1514C29.7769 32.9264 30.0821 32.8 30.4004 32.8C30.7187 32.8 31.0239 32.9264 31.2489 33.1514C31.474 33.3765 31.6004 33.6817 31.6004 34ZM37.6004 35.2C37.9187 35.2 38.2239 35.0735 38.4489 34.8485C38.674 34.6235 38.8004 34.3182 38.8004 34C38.8004 33.6817 38.674 33.3765 38.4489 33.1514C38.2239 32.9264 37.9187 32.8 37.6004 32.8C37.2821 32.8 36.9769 32.9264 36.7519 33.1514C36.5268 33.3765 36.4004 33.6817 36.4004 34C36.4004 34.3182 36.5268 34.6235 36.7519 34.8485C36.9769 35.0735 37.2821 35.2 37.6004 35.2Z" fill="#646D89"/>
</g>
<defs>
<filter id="filter0_d_46_643" x="0" y="0" width="72" height="72" filterUnits="userSpaceOnUse" color-interpolation-filters="sRGB">
<feFlood flood-opacity="0" result="BackgroundImageFix"/>
<feColorMatrix in="SourceAlpha" type="matrix" values="0 0 0 0 0 0 0 0 0 0 0 0 0 0 0 0 0 0 127 0" result="hardAlpha"/>
<feOffset dx="2" dy="2"/>
<feGaussianBlur stdDeviation="6"/>
<feComposite in2="hardAlpha" operator="out"/>
<feColorMatrix type="matrix" values="0 0 0 0 0.249604 0 0 0 0 0.196181 0 0 0 0 0.520833 0 0 0 0.12 0"/>
<feBlend mode="normal" in2="BackgroundImageFix" result="effect1_dropShadow_46_643"/>
<feBlend mode="normal" in="SourceGraphic" in2="effect1_dropShadow_46_643" result="shape"/>
</filter>
</defs>
</svg>
