<svg width="12" height="15" viewBox="0 0 12 15" fill="none" xmlns="http://www.w3.org/2000/svg">
<path fill-rule="evenodd" clip-rule="evenodd" d="M5.75044 14.1464L5.75284 14.1472C5.91044 14.216 5.99844 14.2 5.99844 14.2C5.99844 14.2 6.08644 14.216 6.24484 14.1472L6.24644 14.1464L6.25124 14.144L6.26564 14.1376C6.34158 14.1023 6.41654 14.065 6.49044 14.0256C6.63924 13.9488 6.84724 13.8336 7.09604 13.6792C7.59204 13.372 8.25204 12.9064 8.91524 12.2672C10.24 10.9904 11.5984 8.99438 11.5984 6.19998C11.5984 5.46457 11.4536 4.73637 11.1722 4.05695C10.8907 3.37753 10.4782 2.76019 9.95824 2.24018C9.43823 1.72017 8.82089 1.30768 8.14147 1.02625C7.46204 0.744824 6.73384 0.599976 5.99844 0.599976C5.26304 0.599976 4.53483 0.744824 3.85541 1.02625C3.17599 1.30768 2.55865 1.72017 2.03864 2.24018C1.51863 2.76019 1.10614 3.37753 0.824712 4.05695C0.543286 4.73637 0.398437 5.46457 0.398438 6.19998C0.398438 8.99358 1.75684 10.9904 3.08244 12.2672C3.63744 12.8002 4.24692 13.2735 4.90084 13.6792C5.15411 13.8364 5.41467 13.9817 5.68164 14.1144L5.73124 14.1376L5.74564 14.144L5.75044 14.1464ZM5.99844 7.99998C6.47583 7.99998 6.93366 7.81033 7.27123 7.47277C7.6088 7.1352 7.79844 6.67737 7.79844 6.19998C7.79844 5.72259 7.6088 5.26475 7.27123 4.92718C6.93366 4.58962 6.47583 4.39998 5.99844 4.39998C5.52105 4.39998 5.06321 4.58962 4.72565 4.92718C4.38808 5.26475 4.19844 5.72259 4.19844 6.19998C4.19844 6.67737 4.38808 7.1352 4.72565 7.47277C5.06321 7.81033 5.52105 7.99998 5.99844 7.99998Z" fill="#FFB1C8"/>
</svg>
