<svg width="16" height="12" viewBox="0 0 16 12" fill="none" xmlns="http://www.w3.org/2000/svg">
<path fill-rule="evenodd" clip-rule="evenodd" d="M0.531497 6.47203C0.41398 6.16668 0.41398 5.82858 0.531497 5.52323C1.11328 4.01482 2.13826 2.71798 3.47146 1.80347C4.80467 0.888963 6.38358 0.399671 8.0003 0.400025C11.4059 0.400025 14.3147 2.52802 15.4691 5.52803C15.5867 5.83283 15.5859 6.17123 15.4691 6.47683C14.8873 7.98523 13.8623 9.28207 12.5291 10.1966C11.1959 11.1111 9.61701 11.6004 8.0003 11.6C4.5947 11.6 1.6859 9.47203 0.531497 6.47203ZM11.2003 6.00003C11.2003 6.84872 10.8632 7.66265 10.263 8.26277C9.66292 8.86288 8.84899 9.20003 8.0003 9.20003C7.1516 9.20003 6.33767 8.86288 5.73755 8.26277C5.13744 7.66265 4.8003 6.84872 4.8003 6.00003C4.8003 5.15133 5.13744 4.3374 5.73755 3.73728C6.33767 3.13717 7.1516 2.80002 8.0003 2.80002C8.84899 2.80002 9.66292 3.13717 10.263 3.73728C10.8632 4.3374 11.2003 5.15133 11.2003 6.00003Z" fill="white"/>
</svg>
