<svg width="100" height="28" viewBox="0 0 100 28" fill="none" xmlns="http://www.w3.org/2000/svg">
<g clip-path="url(#clip0_89_2918)">
<path d="M15.177 9.50045L9.94239 18.5462H6.51852L3.95062 11.3144C3.78601 10.8609 3.65432 10.7177 3.19342 10.5267C2.17914 10.1728 1.10566 9.9161 0 9.76299L0.0658436 9.50045H5.56379C6.30694 9.50288 6.93632 9.89833 7.04527 10.4313L8.39506 15.6582L11.7531 9.50045H15.177ZM28.5761 15.5866C28.5761 13.1999 24.0329 13.0567 24.0658 12.0065C24.0658 11.6724 24.4938 11.3382 25.4486 11.2428C26.5439 11.1686 27.6467 11.3087 28.642 11.6485L29.2016 9.73912C28.235 9.47004 27.2083 9.33249 26.1728 9.33338C22.9794 9.33338 20.7407 10.5745 20.7078 12.3168C20.6749 13.6295 22.321 14.3455 23.5391 14.7751C24.7572 15.2048 25.2181 15.515 25.2181 15.8969C25.2181 16.4936 24.1975 16.78 23.2757 16.78C22.1173 16.8032 20.9708 16.6057 19.9506 16.2072L19.358 18.1882C20.498 18.5199 21.7183 18.6822 22.9465 18.6655C26.3374 18.6894 28.5432 17.4722 28.5761 15.5866ZM37.0041 18.5462H40L37.3992 9.50045H34.6337C34.0268 9.49518 33.4777 9.76057 33.251 10.1687L28.3786 18.5462H31.7695L32.428 17.1858H36.5761L37.0041 18.5462ZM33.3827 15.348L35.0947 11.9588L36.0823 15.348H33.3827ZM19.786 9.50045L17.1193 18.5462H13.893L16.5597 9.50045H19.786Z" fill="#1A1F71"/>
</g>
<circle cx="66" cy="14" r="14" fill="#CF1928"/>
<circle cx="82" cy="14" r="14" fill="#FFD400" fill-opacity="0.7"/>
<defs>
<clipPath id="clip0_89_2918">
<rect width="40" height="28" fill="white"/>
</clipPath>
</defs>
</svg>
