<svg width="60" height="60" viewBox="0 0 60 60" fill="none" xmlns="http://www.w3.org/2000/svg">
<rect width="60" height="60" rx="16" fill="#F6F7FC"/>
<path d="M40.7641 15.2472C40.6815 14.8403 40.4607 14.4745 40.1393 14.2117C39.8178 13.949 39.4153 13.8054 39.0001 13.8054C38.5849 13.8054 38.1825 13.949 37.861 14.2117C37.5395 14.4745 37.3188 14.8403 37.2361 15.2472L36.8041 17.3928C36.7347 17.7414 36.5636 18.0615 36.3125 18.313C36.0613 18.5644 35.7414 18.7359 35.3929 18.8058L33.2473 19.2342C32.8385 19.3151 32.4703 19.5353 32.2058 19.8573C31.9412 20.1794 31.7965 20.5832 31.7965 21C31.7965 21.4168 31.9412 21.8207 32.2058 22.1427C32.4703 22.4647 32.8385 22.685 33.2473 22.7658L35.3929 23.1942C35.7417 23.2638 36.062 23.4352 36.3135 23.6866C36.565 23.9381 36.7363 24.2585 36.8059 24.6072L37.2343 26.7528C37.3152 27.1617 37.5354 27.5298 37.8575 27.7944C38.1795 28.059 38.5833 28.2036 39.0001 28.2036C39.4169 28.2036 39.8208 28.059 40.1428 27.7944C40.4648 27.5298 40.6851 27.1617 40.7659 26.7528L41.1943 24.6072C41.2639 24.2585 41.4353 23.9381 41.6867 23.6866C41.9382 23.4352 42.2586 23.2638 42.6073 23.1942L44.7529 22.7658C45.1618 22.685 45.5299 22.4647 45.7945 22.1427C46.0591 21.8207 46.2037 21.4168 46.2037 21C46.2037 20.5832 46.0591 20.1794 45.7945 19.8573C45.5299 19.5353 45.1618 19.3151 44.7529 19.2342L42.6073 18.8058C42.2586 18.7362 41.9382 18.5649 41.6867 18.3134C41.4353 18.0619 41.2639 17.7416 41.1943 17.3928L40.7659 15.2472H40.7641ZM24.5083 22.2312C24.3891 21.8724 24.16 21.5602 23.8533 21.339C23.5467 21.1178 23.1782 20.9987 22.8001 20.9987C22.422 20.9987 22.0535 21.1178 21.7469 21.339C21.4403 21.5602 21.2111 21.8724 21.0919 22.2312L19.8625 25.923C19.7742 26.1884 19.6252 26.4296 19.4274 26.6273C19.2297 26.8251 18.9885 26.9741 18.7231 27.0624L15.0313 28.2918C14.6725 28.411 14.3604 28.6402 14.1391 28.9468C13.9179 29.2534 13.7988 29.6219 13.7988 30C13.7988 30.3781 13.9179 30.7466 14.1391 31.0532C14.3604 31.3599 14.6725 31.589 15.0313 31.7082L18.7231 32.9394C18.9883 33.0276 19.2294 33.1763 19.4271 33.3737C19.6249 33.5712 19.774 33.812 19.8625 34.077L21.0919 37.7688C21.2111 38.1276 21.4403 38.4398 21.7469 38.661C22.0535 38.8823 22.422 39.0013 22.8001 39.0013C23.1782 39.0013 23.5467 38.8823 23.8533 38.661C24.16 38.4398 24.3891 38.1276 24.5083 37.7688L25.7377 34.077C25.8261 33.8116 25.975 33.5705 26.1728 33.3727C26.3706 33.1749 26.6117 33.026 26.8771 32.9376L30.5689 31.7082C30.9277 31.589 31.2399 31.3599 31.4611 31.0532C31.6824 30.7466 31.8014 30.3781 31.8014 30C31.8014 29.6219 31.6824 29.2534 31.4611 28.9468C31.2399 28.6402 30.9277 28.411 30.5689 28.2918L26.8771 27.0624C26.6117 26.9741 26.3706 26.8251 26.1728 26.6273C25.975 26.4296 25.8261 26.1884 25.7377 25.923L24.5101 22.2312H24.5083ZM37.1083 36.6312C36.9891 36.2724 36.76 35.9602 36.4533 35.739C36.1467 35.5178 35.7782 35.3987 35.4001 35.3987C35.022 35.3987 34.6535 35.5178 34.3469 35.739C34.0403 35.9602 33.8111 36.2724 33.6919 36.6312L33.3607 37.623C33.2726 37.8882 33.1239 38.1292 32.9264 38.327C32.729 38.5248 32.4882 38.6739 32.2231 38.7624L31.2313 39.0918C30.8725 39.211 30.5604 39.4402 30.3391 39.7468C30.1179 40.0534 29.9988 40.4219 29.9988 40.8C29.9988 41.1781 30.1179 41.5466 30.3391 41.8532C30.5604 42.1599 30.8725 42.389 31.2313 42.5082L32.2231 42.8376C32.4885 42.926 32.7297 43.0749 32.9274 43.2727C33.1252 43.4705 33.2742 43.7116 33.3625 43.977L33.6919 44.9688C33.8111 45.3276 34.0403 45.6398 34.3469 45.861C34.6535 46.0823 35.022 46.2013 35.4001 46.2013C35.7782 46.2013 36.1467 46.0823 36.4533 45.861C36.76 45.6398 36.9891 45.3276 37.1083 44.9688L37.4395 43.977C37.5277 43.7118 37.6764 43.4708 37.8738 43.273C38.0713 43.0753 38.3121 42.9262 38.5771 42.8376L39.5689 42.5082C39.9277 42.389 40.2399 42.1599 40.4611 41.8532C40.6824 41.5466 40.8014 41.1781 40.8014 40.8C40.8014 40.4219 40.6824 40.0534 40.4611 39.7468C40.2399 39.4402 39.9277 39.211 39.5689 39.0918L38.5771 38.7606C38.3119 38.6725 38.0709 38.5238 37.8731 38.3263C37.6754 38.1289 37.5263 37.8881 37.4377 37.623L37.1083 36.6312Z" fill="#F3B984"/>
</svg>
