<svg width="60" height="60" viewBox="0 0 60 60" fill="none" xmlns="http://www.w3.org/2000/svg">
<rect width="60" height="60" rx="16" fill="#F6F7FC"/>
<path d="M29.375 42.447L29.366 42.4416L29.3318 42.4236C28.6215 42.0371 27.9239 41.6277 27.2402 41.196C25.6101 40.1703 24.0568 39.0273 22.5926 37.776C19.2806 34.9194 15.5996 30.6336 15.5996 25.5C15.5998 23.825 16.1192 22.1913 17.0863 20.8237C18.0535 19.4562 19.4208 18.4221 21 17.8639C22.5792 17.3056 24.2926 17.2507 25.9043 17.7066C27.5161 18.1625 28.9468 19.1068 29.9996 20.4096C31.0524 19.1068 32.4832 18.1625 34.0949 17.7066C35.7066 17.2507 37.42 17.3056 38.9992 17.8639C40.5784 18.4221 41.9458 19.4562 42.9129 20.8237C43.88 22.1913 44.3995 23.825 44.3996 25.5C44.3996 30.6336 40.7204 34.9194 37.4066 37.776C35.3264 39.5533 33.068 41.1108 30.6674 42.4236L30.6332 42.4416L30.6242 42.447H30.6206C30.4294 42.5483 30.2163 42.6014 29.9998 42.6017C29.7834 42.6021 29.5702 42.5496 29.3786 42.4488L29.375 42.447Z" fill="#CF4FA9"/>
</svg>
