<svg width="59" height="52" viewBox="0 0 59 52" fill="none" xmlns="http://www.w3.org/2000/svg">
<path d="M23.8981 47.0221C25.1128 47.789 26.3521 48.5164 27.614 49.2029L27.6261 49.2095L27.6383 49.2159L27.6477 49.2209L27.6813 49.241L27.7406 49.2707C28.3533 49.5886 29.0338 49.7542 29.7243 49.7532C30.2321 49.7525 30.7343 49.6617 31.2078 49.4865H31.3517L31.7943 49.2209L31.8037 49.2159L31.8178 49.2085L31.8318 49.2009C36.091 46.8717 40.098 44.1084 43.7888 40.9549L43.7954 40.9492C49.5833 35.9598 56.5445 28.0559 56.5445 18.2723V18.2721C56.5442 14.9711 55.5206 11.7514 53.6146 9.05628C51.7085 6.36118 49.0139 4.32323 45.9016 3.22305C42.7894 2.12287 39.4126 2.01457 36.2363 2.91306C33.7951 3.60359 31.5646 4.8627 29.721 6.57404C27.8774 4.8627 25.6469 3.60359 23.2057 2.91306C20.0294 2.01457 16.6526 2.12287 13.5403 3.22305C10.4281 4.32323 7.73344 6.36118 5.82743 9.05628C3.92141 11.7514 2.89777 14.9711 2.89746 18.2721V18.2723C2.89746 28.0561 9.86212 35.9601 15.6461 40.9488L15.653 40.9547C18.2505 43.1746 21.0062 45.2024 23.8981 47.0221ZM23.8981 47.0221C23.8975 47.0217 23.897 47.0214 23.8964 47.021L24.9639 45.3303L23.8991 47.0227C23.8987 47.0225 23.8984 47.0223 23.8981 47.0221Z" fill="#FF1659" stroke="white" stroke-width="4"/>
</svg>
