<svg width="129" height="147" viewBox="0 0 129 147" fill="none" xmlns="http://www.w3.org/2000/svg">
<path opacity="0.3" d="M76.1667 146.411L76.1081 146.402L75.919 146.356C74.8112 146.081 73.7073 145.789 72.6078 145.482C59.371 141.719 46.5618 136.564 34.3929 130.103C12.8083 118.535 -11.9024 99.4088 -19.8303 69.8211C-25.746 47.7435 -11.9688 25.2866 10.3224 19.3137C16.5111 17.6227 23.0035 17.3571 29.3168 18.5365C35.6302 19.7159 41.6021 22.31 46.7883 26.126C49.3722 20.227 53.248 14.9935 58.1271 10.815C63.0063 6.63651 68.7634 3.62051 74.9699 1.99141C97.2537 -3.97949 120.414 8.58015 126.329 30.6578C134.259 60.2529 122.423 89.1724 109.509 109.967C102.201 121.647 93.6858 132.516 84.1037 142.393C83.306 143.212 82.4964 144.019 81.6754 144.814L81.5348 144.948L81.4904 144.993L81.4699 145.006C80.7732 145.657 79.928 146.126 79.0083 146.373C78.0885 146.619 77.122 146.635 76.1932 146.42L76.1687 146.419L76.1667 146.411Z" fill="#FF6390"/>
</svg>
