<svg width="25" height="24" viewBox="0 0 25 24" fill="none" xmlns="http://www.w3.org/2000/svg">
<path opacity="0.5" d="M14.6016 23.6494L14.5921 23.6471L14.5619 23.6367C14.385 23.5748 14.209 23.5104 14.0339 23.4435C11.9275 22.6279 9.91311 21.5925 8.02425 20.3546C4.67559 18.1415 0.93534 14.6511 0.107542 9.7181C-0.510142 6.0372 2.10088 2.59778 5.84355 1.96973C6.88314 1.79005 7.94982 1.84679 8.96426 2.13576C9.9787 2.42472 10.9148 2.93846 11.7029 3.63876C12.2194 2.71936 12.9367 1.92806 13.8015 1.32374C14.6663 0.719426 15.6563 0.317647 16.6978 0.148297C20.4392 -0.479543 24.03 1.91918 24.6476 5.60007C25.4756 10.5343 23.0796 15.0544 20.6364 18.2369C19.2551 20.0236 17.689 21.6598 15.9642 23.1183C15.8207 23.2391 15.6754 23.3579 15.5284 23.4745L15.5032 23.4942L15.4953 23.5007L15.4917 23.5026C15.3674 23.5977 15.2216 23.661 15.0672 23.6869C14.9128 23.7128 14.7543 23.7006 14.6058 23.6513L14.6018 23.6507L14.6016 23.6494Z" fill="#DF89C6"/>
</svg>
