<svg width="67" height="74" viewBox="0 0 67 74" fill="none" xmlns="http://www.w3.org/2000/svg">
<path opacity="0.5" d="M24.9263 73.0867L24.9026 73.0681L24.831 72.9999C24.4123 72.5985 23.9995 72.1911 23.5927 71.7779C18.7102 66.7759 14.3692 61.2736 10.6417 55.3623C4.05721 44.8303 -1.98907 30.1996 2.01703 15.2486C5.0063 4.09253 16.775 -2.2364 28.1183 0.803042C31.2758 1.63256 34.2059 3.16249 36.6906 5.27907C39.1754 7.39564 41.1508 10.0444 42.4701 13.0283C45.1051 11.1034 48.141 9.7971 51.3518 9.20662C54.5626 8.61615 57.8658 8.7567 61.0155 9.61782C72.3551 12.6562 79.3826 24.0216 76.3933 35.1777C72.3862 50.1325 59.8346 59.7799 48.8683 65.601C42.6846 68.8567 36.174 71.4513 29.4447 73.3418C28.8854 73.4976 28.3238 73.6453 27.7602 73.7848L27.6641 73.808L27.6333 73.8161L27.6208 73.8169C27.1486 73.9249 26.657 73.9158 26.1889 73.7904C25.7209 73.665 25.2906 73.4271 24.9357 73.0974L24.9252 73.0905L24.9263 73.0867Z" fill="#DF89C6"/>
</svg>
